<?xml version="1.0" encoding="utf-8"?>
<!-- Generator: Adobe Illustrator 19.2.1, SVG Export Plug-In . SVG Version: 6.00 Build 0)  -->
<svg version="1.1" id="soccer" xmlns="http://www.w3.org/2000/svg" xmlns:xlink="http://www.w3.org/1999/xlink" x="0px" y="0px"
	 viewBox="0 0 20 20" style="enable-background:new 0 0 20 20;" xml:space="preserve">
<style type="text/css">
	.st0{fill:#FFFFFF;}
</style>
<g>
	<path class="st0" d="M12.5,0.3C11.6,0.1,10.8,0,10,0S8.4,0.1,7.5,0.3L10,1.2L12.5,0.3z"/>
	<path class="st0" d="M14.3,19.1c1.5-0.7,2.7-1.7,3.7-3L15.6,17L14.3,19.1z"/>
	<path class="st0" d="M19.3,6.3c-0.3-0.8-0.7-1.5-1.2-2.1v2.6L20,8.9C19.9,8,19.7,7.1,19.3,6.3z"/>
	<path class="st0" d="M2,16.1c1,1.3,2.2,2.3,3.7,3l-1.3-2L2,16.1z"/>
	<path class="st0" d="M1.8,4.2C1.4,4.8,1,5.4,0.7,6.1C0.4,7,0.1,7.9,0,8.9l1.8-2.2V4.2z"/>
	<polygon class="st0" points="7,9.4 8.2,12.9 11.8,12.9 13,9.4 10,7.3 	"/>
	<path class="st0" d="M14.1,16.6l-2-2.1H7.9l-2,2.1l2,3.2C8.6,19.9,9.3,20,10,20s1.4-0.1,2.1-0.2L14.1,16.6z"/>
	<path class="st0" d="M19.2,14c0,0,0-0.1,0.1-0.1c0.4-0.9,0.6-1.8,0.7-2.7L17.3,8l-2.8,1.6l-1.3,3.8l2,2.1L19.2,14z"/>
	<path class="st0" d="M0.8,14c0,0,0-0.1-0.1-0.1C0.4,13,0.1,12.1,0,11.2L2.7,8l2.8,1.6l1.3,3.8l-2,2.1L0.8,14z"/>
	<path class="st0" d="M5.5,1.1C4.7,1.5,4,2,3.3,2.5v4.1L6,8.2l3.2-2.3V2.5L5.5,1.1z"/>
	<path class="st0" d="M14.5,1.1l-3.8,1.4v3.4l3.2,2.3l2.7-1.6V2.5C16,2,15.3,1.5,14.5,1.1z"/>
</g>
</svg>
